<svg xmlns="http://www.w3.org/2000/svg" xmlns:xlink="http://www.w3.org/1999/xlink" width="275" zoomAndPan="magnify" viewBox="0 0 206.25 74.999997" height="100" preserveAspectRatio="xMidYMid meet" version="1.0"><defs><clipPath id="id1"><path d="M 10.265625 45.628906 L 20.328125 45.628906 L 20.328125 49 L 10.265625 49 Z M 10.265625 45.628906 " clip-rule="nonzero"/></clipPath><clipPath id="id2"><path d="M 3.148438 19.410156 L 25.34375 19.410156 L 25.34375 49.152344 L 3.148438 49.152344 Z M 3.148438 19.410156 " clip-rule="nonzero"/></clipPath><clipPath id="id3"><path d="M 3.148438 38.527344 L 7.304688 38.527344 L 7.304688 43.851562 L 3.148438 43.851562 Z M 3.148438 38.527344 " clip-rule="nonzero"/></clipPath></defs><path fill="rgb(65.879822%, 69.018555%, 73.728943%)" d="M 13.28125 38.121094 L 17.140625 38.121094 L 17.140625 42.917969 L 13.28125 42.917969 Z M 13.28125 38.121094 " fill-opacity="1" fill-rule="nonzero"/><path fill="rgb(65.879822%, 69.018555%, 73.728943%)" d="M 17.140625 31.40625 L 23.402344 31.40625 C 24.203125 31.40625 24.851562 32.046875 24.851562 32.84375 C 24.851562 33.640625 24.203125 34.28125 23.402344 34.28125 L 17.140625 34.28125 " fill-opacity="1" fill-rule="nonzero"/><path fill="rgb(45.878601%, 50.588989%, 56.469727%)" d="M 17.140625 31.40625 L 19.066406 31.40625 L 19.066406 34.28125 L 17.140625 34.28125 Z M 17.140625 31.40625 " fill-opacity="1" fill-rule="nonzero"/><path fill="rgb(75.689697%, 78.42865%, 81.959534%)" d="M 13.28125 29.488281 L 17.140625 29.488281 L 17.140625 36.199219 L 13.28125 36.199219 Z M 13.28125 29.488281 " fill-opacity="1" fill-rule="nonzero"/><path fill="rgb(45.878601%, 50.588989%, 56.469727%)" d="M 16.175781 27.566406 L 16.175781 25.390625 C 15.890625 25.554688 15.5625 25.648438 15.210938 25.648438 C 14.859375 25.648438 14.527344 25.554688 14.246094 25.390625 L 14.246094 27.566406 Z M 16.175781 27.566406 " fill-opacity="1" fill-rule="nonzero"/><path fill="rgb(45.878601%, 50.588989%, 56.469727%)" d="M 16.878906 24.6875 L 19.878906 24.6875 C 20.902344 24.6875 21.882812 24.285156 22.605469 23.566406 L 24.550781 21.628906 C 24.742188 21.4375 24.851562 21.179688 24.851562 20.910156 C 24.851562 20.347656 24.394531 19.890625 23.828125 19.890625 C 23.554688 19.890625 23.296875 20 23.105469 20.191406 L 21.074219 22.207031 C 20.714844 22.566406 20.226562 22.769531 19.714844 22.769531 L 16.878906 22.769531 C 17.042969 23.050781 17.140625 23.378906 17.140625 23.730469 C 17.140625 24.078125 17.042969 24.40625 16.878906 24.6875 Z M 16.878906 24.6875 " fill-opacity="1" fill-rule="nonzero"/><path fill="rgb(65.879822%, 69.018555%, 73.728943%)" d="M 18.101562 29.488281 L 12.320312 29.488281 C 11.785156 29.488281 11.355469 29.054688 11.355469 28.527344 C 11.355469 27.996094 11.785156 27.566406 12.320312 27.566406 L 18.101562 27.566406 C 18.632812 27.566406 19.066406 27.996094 19.066406 28.527344 C 19.066406 29.054688 18.632812 29.488281 18.101562 29.488281 Z M 18.101562 29.488281 " fill-opacity="1" fill-rule="nonzero"/><path fill="rgb(53.329468%, 57.249451%, 62.748718%)" d="M 17.621094 38.121094 L 12.800781 38.121094 C 12.265625 38.121094 11.835938 37.691406 11.835938 37.160156 C 11.835938 36.628906 12.265625 36.199219 12.800781 36.199219 L 17.621094 36.199219 C 18.152344 36.199219 18.582031 36.628906 18.582031 37.160156 C 18.582031 37.691406 18.152344 38.121094 17.621094 38.121094 Z M 17.621094 38.121094 " fill-opacity="1" fill-rule="nonzero"/><path fill="rgb(53.329468%, 57.249451%, 62.748718%)" d="M 17.140625 23.730469 C 17.140625 23.984375 17.085938 24.230469 16.992188 24.460938 C 16.894531 24.699219 16.753906 24.90625 16.574219 25.085938 C 16.390625 25.265625 16.183594 25.402344 15.949219 25.503906 C 15.710938 25.601562 15.464844 25.648438 15.210938 25.648438 C 14.953125 25.648438 14.707031 25.601562 14.472656 25.503906 C 14.234375 25.402344 14.027344 25.265625 13.847656 25.085938 C 13.667969 24.90625 13.523438 24.699219 13.429688 24.460938 C 13.332031 24.230469 13.28125 23.984375 13.28125 23.730469 C 13.28125 23.476562 13.332031 23.230469 13.429688 22.996094 C 13.523438 22.757812 13.667969 22.554688 13.847656 22.371094 C 14.027344 22.191406 14.234375 22.054688 14.472656 21.957031 C 14.707031 21.859375 14.953125 21.8125 15.210938 21.8125 C 15.464844 21.8125 15.710938 21.859375 15.949219 21.957031 C 16.183594 22.054688 16.390625 22.191406 16.574219 22.371094 C 16.753906 22.554688 16.894531 22.757812 16.992188 22.996094 C 17.085938 23.230469 17.140625 23.476562 17.140625 23.730469 Z M 17.140625 23.730469 " fill-opacity="1" fill-rule="nonzero"/><path fill="rgb(65.879822%, 69.018555%, 73.728943%)" d="M 13.28125 31.40625 L 8.460938 31.40625 C 5.800781 31.40625 3.640625 33.550781 3.640625 36.199219 L 3.640625 37.160156 L 6.535156 37.160156 L 6.535156 36.199219 C 6.535156 35.140625 7.394531 34.28125 8.460938 34.28125 L 13.28125 34.28125 " fill-opacity="1" fill-rule="nonzero"/><g clip-path="url(#id1)"><path fill="rgb(45.878601%, 50.588989%, 56.469727%)" d="M 20.03125 48.671875 L 10.390625 48.671875 L 10.390625 46.753906 C 10.390625 46.226562 10.820312 45.792969 11.355469 45.792969 L 19.066406 45.792969 C 19.597656 45.792969 20.03125 46.226562 20.03125 46.753906 Z M 20.03125 48.671875 " fill-opacity="1" fill-rule="nonzero"/></g><path fill="rgb(53.329468%, 57.249451%, 62.748718%)" d="M 11.355469 45.792969 L 11.355469 43.875 C 11.355469 43.347656 11.785156 42.917969 12.320312 42.917969 L 18.101562 42.917969 C 18.632812 42.917969 19.066406 43.347656 19.066406 43.875 L 19.066406 45.792969 " fill-opacity="1" fill-rule="nonzero"/><path fill="rgb(78.039551%, 88.62915%, 98.81897%)" d="M 5.085938 39.078125 L 3.929688 40.613281 C 3.742188 40.863281 3.640625 41.167969 3.640625 41.476562 C 3.640625 42.269531 4.289062 42.917969 5.085938 42.917969 C 5.886719 42.917969 6.535156 42.269531 6.535156 41.476562 C 6.535156 41.167969 6.433594 40.863281 6.242188 40.613281 Z M 5.085938 39.078125 " fill-opacity="1" fill-rule="nonzero"/><path fill="rgb(65.879822%, 69.018555%, 73.728943%)" d="M 14.726562 23.25 L 15.691406 23.25 L 15.691406 24.207031 L 14.726562 24.207031 Z M 14.726562 23.25 " fill-opacity="1" fill-rule="nonzero"/><g clip-path="url(#id2)"><path fill="rgb(0%, 0%, 0%)" d="M 23.402344 30.925781 L 17.621094 30.925781 L 17.621094 29.964844 L 18.101562 29.964844 C 18.898438 29.964844 19.546875 29.320312 19.546875 28.527344 C 19.546875 27.730469 18.898438 27.085938 18.101562 27.085938 L 16.65625 27.085938 L 16.65625 25.636719 C 16.832031 25.5 16.992188 25.347656 17.125 25.167969 L 19.878906 25.167969 C 21.035156 25.167969 22.125 24.71875 22.945312 23.90625 L 24.890625 21.96875 C 25.175781 21.6875 25.332031 21.308594 25.332031 20.910156 C 25.332031 20.082031 24.65625 19.414062 23.828125 19.414062 C 23.425781 19.414062 23.046875 19.570312 22.761719 19.851562 L 20.734375 21.867188 C 20.464844 22.136719 20.09375 22.289062 19.714844 22.289062 L 17.125 22.289062 C 16.6875 21.710938 15.996094 21.332031 15.207031 21.332031 C 13.878906 21.332031 12.800781 22.40625 12.800781 23.730469 C 12.800781 24.507812 13.179688 25.199219 13.761719 25.636719 L 13.761719 27.085938 L 12.316406 27.085938 C 11.519531 27.085938 10.871094 27.730469 10.871094 28.527344 C 10.871094 29.320312 11.519531 29.964844 12.316406 29.964844 L 12.800781 29.964844 L 12.800781 30.925781 L 8.460938 30.925781 C 5.539062 30.925781 3.160156 33.292969 3.160156 36.199219 L 3.160156 37.160156 C 3.160156 37.425781 3.375 37.640625 3.640625 37.640625 L 6.535156 37.640625 C 6.660156 37.640625 6.785156 37.589844 6.875 37.5 C 6.964844 37.410156 7.015625 37.285156 7.015625 37.160156 L 7.015625 36.199219 C 7.015625 35.40625 7.664062 34.761719 8.460938 34.761719 L 12.800781 34.761719 L 12.800781 35.722656 C 12 35.722656 11.351562 36.367188 11.351562 37.160156 C 11.351562 37.953125 12 38.597656 12.800781 38.597656 L 12.800781 42.4375 L 12.316406 42.4375 C 11.519531 42.4375 10.871094 43.082031 10.871094 43.875 L 10.871094 45.402344 C 10.3125 45.601562 9.90625 46.128906 9.90625 46.753906 L 9.90625 48.671875 C 9.90625 48.9375 10.121094 49.152344 10.386719 49.152344 L 20.027344 49.152344 C 20.292969 49.152344 20.511719 48.9375 20.511719 48.671875 L 20.511719 46.753906 C 20.511719 46.128906 20.105469 45.601562 19.546875 45.402344 L 19.546875 43.875 C 19.546875 43.082031 18.898438 42.4375 18.101562 42.4375 L 17.621094 42.4375 L 17.621094 38.601562 C 18.417969 38.601562 19.066406 37.953125 19.066406 37.160156 C 19.066406 36.367188 18.417969 35.722656 17.621094 35.722656 L 17.621094 34.761719 L 23.402344 34.761719 C 24.46875 34.761719 25.332031 33.898438 25.332031 32.84375 C 25.332031 31.785156 24.46875 30.925781 23.402344 30.925781 Z M 19.714844 23.25 C 20.355469 23.25 20.960938 23 21.417969 22.546875 L 23.445312 20.527344 C 23.546875 20.425781 23.683594 20.371094 23.828125 20.371094 C 24.125 20.371094 24.367188 20.613281 24.367188 20.910156 C 24.367188 21.050781 24.308594 21.1875 24.207031 21.289062 L 22.265625 23.226562 C 21.625 23.859375 20.78125 24.207031 19.878906 24.207031 L 17.570312 24.207031 C 17.601562 24.054688 17.621094 23.894531 17.621094 23.730469 C 17.621094 23.5625 17.601562 23.402344 17.570312 23.25 Z M 15.207031 22.289062 C 16.007812 22.289062 16.65625 22.9375 16.65625 23.730469 C 16.65625 24.523438 16.007812 25.167969 15.207031 25.167969 C 14.414062 25.167969 13.761719 24.523438 13.761719 23.730469 C 13.761719 22.933594 14.414062 22.289062 15.207031 22.289062 Z M 14.726562 26.078125 C 14.882812 26.109375 15.042969 26.128906 15.207031 26.128906 C 15.375 26.128906 15.535156 26.109375 15.691406 26.078125 L 15.691406 27.085938 L 14.726562 27.085938 Z M 11.835938 28.527344 C 11.835938 28.261719 12.050781 28.046875 12.316406 28.046875 L 18.101562 28.046875 C 18.367188 28.046875 18.582031 28.261719 18.582031 28.527344 C 18.582031 28.789062 18.367188 29.003906 18.101562 29.003906 L 12.316406 29.003906 C 12.050781 29.003906 11.835938 28.789062 11.835938 28.527344 Z M 8.460938 33.804688 C 7.128906 33.804688 6.050781 34.878906 6.050781 36.199219 L 6.050781 36.679688 L 4.121094 36.679688 L 4.121094 36.199219 C 4.121094 33.820312 6.070312 31.882812 8.460938 31.882812 L 12.800781 31.882812 L 12.800781 33.804688 Z M 19.546875 48.191406 L 10.871094 48.191406 L 10.871094 46.753906 C 10.871094 46.488281 11.085938 46.273438 11.351562 46.273438 L 19.066406 46.273438 C 19.332031 46.273438 19.546875 46.488281 19.546875 46.753906 Z M 18.582031 43.875 L 18.582031 45.316406 L 11.835938 45.316406 L 11.835938 43.875 C 11.835938 43.613281 12.050781 43.398438 12.316406 43.398438 L 18.101562 43.398438 C 18.367188 43.398438 18.582031 43.613281 18.582031 43.875 Z M 16.65625 42.4375 L 13.761719 42.4375 L 13.761719 38.601562 L 16.65625 38.601562 Z M 18.101562 37.160156 C 18.101562 37.425781 17.886719 37.640625 17.621094 37.640625 L 12.800781 37.640625 C 12.535156 37.640625 12.316406 37.425781 12.316406 37.160156 C 12.316406 36.894531 12.535156 36.679688 12.800781 36.679688 L 17.621094 36.679688 C 17.886719 36.679688 18.101562 36.894531 18.101562 37.160156 Z M 13.761719 35.722656 L 13.761719 29.964844 L 16.65625 29.964844 L 16.65625 35.722656 Z M 17.621094 31.882812 L 18.582031 31.882812 L 18.582031 33.804688 L 17.621094 33.804688 Z M 23.402344 33.804688 L 19.546875 33.804688 L 19.546875 31.882812 L 23.402344 31.882812 C 23.9375 31.882812 24.367188 32.3125 24.367188 32.84375 C 24.367188 33.371094 23.9375 33.804688 23.402344 33.804688 Z M 23.402344 33.804688 " fill-opacity="1" fill-rule="nonzero"/></g><g clip-path="url(#id3)"><path fill="rgb(0%, 0%, 0%)" d="M 5.472656 38.792969 C 5.378906 38.667969 5.238281 38.601562 5.085938 38.601562 C 4.933594 38.601562 4.792969 38.667969 4.699219 38.792969 L 3.542969 40.328125 C 3.296875 40.65625 3.160156 41.066406 3.160156 41.476562 C 3.160156 42.535156 4.023438 43.394531 5.085938 43.394531 C 6.148438 43.394531 7.015625 42.535156 7.015625 41.476562 C 7.015625 41.066406 6.878906 40.65625 6.628906 40.328125 Z M 5.085938 42.433594 C 4.554688 42.433594 4.121094 42.003906 4.121094 41.476562 C 4.121094 41.269531 4.191406 41.066406 4.316406 40.898438 L 5.085938 39.878906 L 5.855469 40.898438 C 5.980469 41.066406 6.050781 41.269531 6.050781 41.476562 C 6.050781 42.003906 5.617188 42.433594 5.085938 42.433594 Z M 5.085938 42.433594 " fill-opacity="1" fill-rule="nonzero"/></g><path fill="rgb(0%, 0%, 0%)" d="M 14.726562 23.25 L 15.691406 23.25 L 15.691406 24.207031 L 14.726562 24.207031 Z M 14.726562 23.25 " fill-opacity="1" fill-rule="nonzero"/><path fill="rgb(0%, 0%, 0%)" d="M 36.824219 30.964844 C 36.007812 30.964844 35.375 31.300781 34.917969 31.972656 C 34.460938 32.636719 34.234375 33.558594 34.234375 34.726562 C 34.234375 37.167969 35.160156 38.390625 37.015625 38.390625 C 37.578125 38.390625 38.121094 38.3125 38.644531 38.160156 C 39.175781 38 39.703125 37.8125 40.234375 37.59375 L 40.234375 40.488281 C 39.175781 40.957031 37.980469 41.191406 36.648438 41.191406 C 34.730469 41.191406 33.261719 40.636719 32.246094 39.527344 C 31.226562 38.417969 30.71875 36.8125 30.71875 34.710938 C 30.71875 33.402344 30.964844 32.253906 31.460938 31.257812 C 31.953125 30.261719 32.660156 29.496094 33.585938 28.964844 C 34.515625 28.429688 35.605469 28.160156 36.859375 28.160156 C 38.230469 28.160156 39.539062 28.457031 40.789062 29.050781 L 39.734375 31.75 C 39.273438 31.527344 38.808594 31.34375 38.339844 31.195312 C 37.871094 31.042969 37.363281 30.964844 36.824219 30.964844 Z M 36.824219 30.964844 " fill-opacity="1" fill-rule="nonzero"/><path fill="rgb(0%, 0%, 0%)" d="M 42.511719 27.523438 L 45.894531 27.523438 L 45.894531 41.015625 L 42.511719 41.015625 Z M 42.511719 27.523438 " fill-opacity="1" fill-rule="nonzero"/><path fill="rgb(0%, 0%, 0%)" d="M 52.984375 41.191406 C 51.347656 41.191406 50.082031 40.757812 49.175781 39.886719 C 48.273438 39.019531 47.824219 37.777344 47.824219 36.171875 C 47.824219 34.511719 48.242188 33.238281 49.082031 32.351562 C 49.917969 31.464844 51.117188 31.019531 52.667969 31.019531 C 54.148438 31.019531 55.289062 31.40625 56.089844 32.175781 C 56.898438 32.949219 57.300781 34.058594 57.300781 35.511719 L 57.300781 37.019531 L 51.246094 37.019531 C 51.269531 37.570312 51.46875 38 51.847656 38.316406 C 52.226562 38.625 52.742188 38.777344 53.390625 38.777344 C 53.988281 38.777344 54.539062 38.722656 55.035156 38.613281 C 55.535156 38.5 56.078125 38.304688 56.664062 38.027344 L 56.664062 40.46875 C 56.132812 40.742188 55.585938 40.929688 55.019531 41.035156 C 54.449219 41.136719 53.773438 41.191406 52.984375 41.191406 Z M 52.789062 33.320312 C 52.386719 33.320312 52.050781 33.449219 51.78125 33.699219 C 51.515625 33.957031 51.359375 34.347656 51.308594 34.886719 L 54.222656 34.886719 C 54.214844 34.410156 54.085938 34.03125 53.824219 33.746094 C 53.566406 33.464844 53.21875 33.320312 52.789062 33.320312 Z M 52.789062 33.320312 " fill-opacity="1" fill-rule="nonzero"/><path fill="rgb(0%, 0%, 0%)" d="M 65.21875 31.019531 C 66.289062 31.019531 67.136719 31.46875 67.761719 32.371094 C 68.390625 33.265625 68.703125 34.503906 68.703125 36.085938 C 68.703125 37.675781 68.386719 38.925781 67.75 39.832031 C 67.121094 40.738281 66.242188 41.191406 65.117188 41.191406 C 64.75 41.191406 64.425781 41.148438 64.144531 41.070312 C 63.859375 40.992188 63.609375 40.882812 63.386719 40.746094 C 63.164062 40.605469 62.90625 40.375 62.609375 40.054688 L 62.40625 40.054688 L 61.871094 41.015625 L 59.226562 41.015625 L 59.226562 27.523438 L 62.609375 27.523438 L 62.609375 30.574219 C 62.609375 30.941406 62.566406 31.570312 62.488281 32.460938 L 62.609375 32.460938 C 62.941406 31.949219 63.320312 31.582031 63.746094 31.363281 C 64.175781 31.136719 64.667969 31.019531 65.21875 31.019531 Z M 63.976562 33.683594 C 63.503906 33.683594 63.15625 33.847656 62.933594 34.183594 C 62.714844 34.511719 62.609375 35.023438 62.609375 35.726562 L 62.609375 36.207031 C 62.609375 37.007812 62.714844 37.585938 62.933594 37.9375 C 63.15625 38.285156 63.515625 38.453125 64.015625 38.453125 C 64.414062 38.453125 64.71875 38.25 64.929688 37.84375 C 65.144531 37.4375 65.253906 36.839844 65.253906 36.050781 C 65.253906 34.472656 64.828125 33.683594 63.976562 33.683594 Z M 63.976562 33.683594 " fill-opacity="1" fill-rule="nonzero"/><path fill="rgb(0%, 0%, 0%)" d="M 75.378906 41.191406 C 73.742188 41.191406 72.472656 40.757812 71.566406 39.886719 C 70.664062 39.019531 70.21875 37.777344 70.21875 36.171875 C 70.21875 34.511719 70.636719 33.238281 71.476562 32.351562 C 72.3125 31.464844 73.507812 31.019531 75.0625 31.019531 C 76.542969 31.019531 77.683594 31.40625 78.484375 32.175781 C 79.292969 32.949219 79.695312 34.058594 79.695312 35.511719 L 79.695312 37.019531 L 73.636719 37.019531 C 73.660156 37.570312 73.863281 38 74.238281 38.316406 C 74.621094 38.625 75.136719 38.777344 75.785156 38.777344 C 76.378906 38.777344 76.929688 38.722656 77.429688 38.613281 C 77.929688 38.5 78.46875 38.304688 79.058594 38.027344 L 79.058594 40.46875 C 78.527344 40.742188 77.976562 40.929688 77.410156 41.035156 C 76.84375 41.136719 76.164062 41.191406 75.378906 41.191406 Z M 75.183594 33.320312 C 74.78125 33.320312 74.445312 33.449219 74.175781 33.699219 C 73.910156 33.957031 73.75 34.347656 73.703125 34.886719 L 76.617188 34.886719 C 76.609375 34.410156 76.476562 34.03125 76.21875 33.746094 C 75.960938 33.464844 75.613281 33.320312 75.183594 33.320312 Z M 75.183594 33.320312 " fill-opacity="1" fill-rule="nonzero"/><path fill="rgb(0%, 0%, 0%)" d="M 87.546875 31.019531 C 87.84375 31.019531 88.121094 31.042969 88.386719 31.09375 L 88.574219 31.121094 L 88.277344 34.320312 C 88 34.253906 87.613281 34.21875 87.121094 34.21875 C 86.382812 34.21875 85.839844 34.390625 85.503906 34.726562 C 85.171875 35.066406 85.003906 35.554688 85.003906 36.1875 L 85.003906 41.015625 L 81.617188 41.015625 L 81.617188 31.195312 L 84.132812 31.195312 L 84.671875 32.757812 L 84.828125 32.757812 C 85.109375 32.238281 85.503906 31.820312 86.011719 31.5 C 86.515625 31.179688 87.027344 31.019531 87.546875 31.019531 Z M 87.546875 31.019531 " fill-opacity="1" fill-rule="nonzero"/><path fill="rgb(0%, 0%, 0%)" d="M 103.042969 37.167969 C 103.042969 37.953125 102.839844 38.648438 102.441406 39.257812 C 102.046875 39.871094 101.472656 40.34375 100.722656 40.683594 C 99.96875 41.019531 99.085938 41.191406 98.078125 41.191406 C 97.230469 41.191406 96.523438 41.132812 95.949219 41.015625 C 95.382812 40.894531 94.785156 40.683594 94.164062 40.386719 L 94.164062 37.335938 C 94.816406 37.675781 95.496094 37.941406 96.199219 38.128906 C 96.90625 38.316406 97.558594 38.40625 98.152344 38.40625 C 98.65625 38.40625 99.023438 38.324219 99.261719 38.148438 C 99.5 37.972656 99.621094 37.742188 99.621094 37.464844 C 99.621094 37.285156 99.570312 37.132812 99.472656 37.003906 C 99.378906 36.871094 99.226562 36.742188 99.019531 36.613281 C 98.808594 36.480469 98.246094 36.207031 97.335938 35.800781 C 96.507812 35.425781 95.886719 35.058594 95.46875 34.710938 C 95.054688 34.351562 94.75 33.945312 94.554688 33.488281 C 94.355469 33.03125 94.257812 32.496094 94.257812 31.871094 C 94.257812 30.703125 94.679688 29.796875 95.523438 29.140625 C 96.375 28.488281 97.542969 28.160156 99.027344 28.160156 C 100.34375 28.160156 101.679688 28.464844 103.042969 29.066406 L 101.996094 31.710938 C 100.8125 31.171875 99.789062 30.898438 98.925781 30.898438 C 98.484375 30.898438 98.160156 30.980469 97.957031 31.140625 C 97.753906 31.292969 97.652344 31.484375 97.652344 31.710938 C 97.652344 31.960938 97.78125 32.183594 98.039062 32.378906 C 98.296875 32.578125 98.996094 32.933594 100.128906 33.453125 C 101.226562 33.945312 101.984375 34.476562 102.40625 35.042969 C 102.828125 35.605469 103.042969 36.3125 103.042969 37.167969 Z M 103.042969 37.167969 " fill-opacity="1" fill-rule="nonzero"/><path fill="rgb(0%, 0%, 0%)" d="M 111.210938 41.015625 L 110.5625 39.710938 L 110.496094 39.710938 C 110.039062 40.28125 109.574219 40.667969 109.101562 40.878906 C 108.625 41.085938 108.011719 41.191406 107.261719 41.191406 C 106.335938 41.191406 105.605469 40.914062 105.070312 40.359375 C 104.535156 39.804688 104.273438 39.027344 104.273438 38.019531 C 104.273438 36.972656 104.636719 36.191406 105.363281 35.679688 C 106.097656 35.167969 107.152344 34.882812 108.535156 34.820312 L 110.171875 34.765625 L 110.171875 34.625 C 110.171875 33.820312 109.777344 33.414062 108.980469 33.414062 C 108.257812 33.414062 107.347656 33.660156 106.242188 34.144531 L 105.261719 31.90625 C 106.410156 31.316406 107.855469 31.019531 109.601562 31.019531 C 110.859375 31.019531 111.832031 31.332031 112.523438 31.960938 C 113.210938 32.585938 113.558594 33.457031 113.558594 34.570312 L 113.558594 41.015625 Z M 108.703125 38.796875 C 109.109375 38.796875 109.457031 38.667969 109.746094 38.40625 C 110.042969 38.148438 110.191406 37.8125 110.191406 37.390625 L 110.191406 36.632812 L 109.40625 36.660156 C 108.289062 36.703125 107.730469 37.113281 107.730469 37.890625 C 107.730469 38.496094 108.054688 38.796875 108.703125 38.796875 Z M 108.703125 38.796875 " fill-opacity="1" fill-rule="nonzero"/><path fill="rgb(0%, 0%, 0%)" d="M 122.070312 41.015625 L 122.070312 35.660156 C 122.070312 35.007812 121.972656 34.515625 121.78125 34.183594 C 121.597656 33.847656 121.292969 33.683594 120.875 33.683594 C 120.308594 33.683594 119.894531 33.910156 119.636719 34.367188 C 119.382812 34.824219 119.257812 35.605469 119.257812 36.714844 L 119.257812 41.015625 L 115.871094 41.015625 L 115.871094 31.195312 L 118.425781 31.195312 L 118.851562 32.40625 L 119.054688 32.40625 C 119.34375 31.945312 119.742188 31.597656 120.246094 31.371094 C 120.757812 31.136719 121.347656 31.019531 122.011719 31.019531 C 123.105469 31.019531 123.949219 31.332031 124.546875 31.960938 C 125.148438 32.589844 125.453125 33.480469 125.453125 34.625 L 125.453125 41.015625 Z M 122.070312 41.015625 " fill-opacity="1" fill-rule="nonzero"/><path fill="rgb(0%, 0%, 0%)" d="M 132.578125 38.511719 C 133.03125 38.511719 133.578125 38.398438 134.214844 38.167969 L 134.214844 40.644531 C 133.753906 40.84375 133.320312 40.984375 132.910156 41.0625 C 132.496094 41.148438 132.011719 41.191406 131.457031 41.191406 C 130.316406 41.191406 129.492188 40.914062 128.988281 40.359375 C 128.488281 39.800781 128.238281 38.941406 128.238281 37.777344 L 128.238281 33.730469 L 127.054688 33.730469 L 127.054688 32.351562 L 128.5625 31.289062 L 129.441406 29.226562 L 131.660156 29.226562 L 131.660156 31.195312 L 134.066406 31.195312 L 134.066406 33.730469 L 131.660156 33.730469 L 131.660156 37.558594 C 131.660156 38.191406 131.964844 38.511719 132.578125 38.511719 Z M 132.578125 38.511719 " fill-opacity="1" fill-rule="nonzero"/><path fill="rgb(0%, 0%, 0%)" d="M 145.3125 36.085938 C 145.3125 37.691406 144.878906 38.941406 144.015625 39.839844 C 143.152344 40.742188 141.941406 41.191406 140.382812 41.191406 C 138.894531 41.191406 137.710938 40.734375 136.832031 39.8125 C 135.949219 38.894531 135.507812 37.65625 135.507812 36.085938 C 135.507812 34.484375 135.9375 33.238281 136.804688 32.351562 C 137.664062 31.464844 138.878906 31.019531 140.4375 31.019531 C 141.402344 31.019531 142.257812 31.226562 143 31.640625 C 143.738281 32.046875 144.308594 32.636719 144.710938 33.40625 C 145.109375 34.171875 145.3125 35.066406 145.3125 36.085938 Z M 138.949219 36.085938 C 138.949219 36.925781 139.058594 37.566406 139.28125 38.011719 C 139.507812 38.453125 139.886719 38.675781 140.417969 38.675781 C 140.949219 38.675781 141.320312 38.453125 141.539062 38.011719 C 141.753906 37.566406 141.863281 36.925781 141.863281 36.085938 C 141.863281 35.25 141.75 34.617188 141.527344 34.191406 C 141.3125 33.761719 140.9375 33.542969 140.402344 33.542969 C 139.882812 33.542969 139.507812 33.757812 139.28125 34.183594 C 139.058594 34.605469 138.949219 35.242188 138.949219 36.085938 Z M 138.949219 36.085938 " fill-opacity="1" fill-rule="nonzero"/><path fill="rgb(0%, 0%, 0%)" d="M 154.832031 38 C 154.832031 39.050781 154.46875 39.847656 153.75 40.386719 C 153.03125 40.921875 152.003906 41.191406 150.667969 41.191406 C 149.941406 41.191406 149.304688 41.148438 148.765625 41.070312 C 148.226562 40.992188 147.675781 40.847656 147.117188 40.644531 L 147.117188 37.925781 C 147.648438 38.164062 148.222656 38.351562 148.847656 38.5 C 149.476562 38.648438 150.035156 38.722656 150.53125 38.722656 C 151.261719 38.722656 151.632812 38.554688 151.632812 38.222656 C 151.632812 38.050781 151.523438 37.898438 151.316406 37.761719 C 151.113281 37.625 150.515625 37.359375 149.53125 36.964844 C 148.628906 36.59375 148 36.175781 147.644531 35.707031 C 147.285156 35.234375 147.109375 34.636719 147.109375 33.914062 C 147.109375 33.003906 147.460938 32.292969 148.164062 31.785156 C 148.867188 31.277344 149.859375 31.019531 151.148438 31.019531 C 151.796875 31.019531 152.402344 31.089844 152.972656 31.230469 C 153.546875 31.375 154.136719 31.582031 154.746094 31.851562 L 153.832031 34.035156 C 153.382812 33.832031 152.902344 33.660156 152.398438 33.523438 C 151.898438 33.382812 151.488281 33.3125 151.167969 33.3125 C 150.613281 33.3125 150.335938 33.449219 150.335938 33.71875 C 150.335938 33.886719 150.429688 34.03125 150.621094 34.144531 C 150.820312 34.261719 151.382812 34.503906 152.304688 34.867188 C 152.996094 35.152344 153.507812 35.429688 153.839844 35.699219 C 154.179688 35.972656 154.429688 36.289062 154.589844 36.660156 C 154.75 37.027344 154.832031 37.472656 154.832031 38 Z M 154.832031 38 " fill-opacity="1" fill-rule="nonzero"/><path fill="rgb(0%, 0%, 0%)" d="M 159.859375 38.425781 L 159.980469 38.621094 C 159.417969 40.820312 158.910156 42.441406 158.453125 43.484375 L 156.03125 43.484375 C 156.203125 42.691406 156.371094 41.796875 156.539062 40.804688 C 156.710938 39.8125 156.828125 39.019531 156.890625 38.425781 Z M 159.859375 38.425781 " fill-opacity="1" fill-rule="nonzero"/><path fill="rgb(0%, 0%, 0%)" d="M 172.53125 41.015625 L 169.941406 31.886719 L 169.867188 31.886719 C 169.984375 33.441406 170.042969 34.652344 170.042969 35.511719 L 170.042969 41.015625 L 167.007812 41.015625 L 167.007812 28.335938 L 171.570312 28.335938 L 174.214844 37.335938 L 174.289062 37.335938 L 176.875 28.335938 L 181.445312 28.335938 L 181.445312 41.015625 L 178.300781 41.015625 L 178.300781 35.457031 C 178.300781 35.167969 178.304688 34.847656 178.308594 34.496094 C 178.320312 34.144531 178.359375 33.28125 178.429688 31.90625 L 178.347656 31.90625 L 175.792969 41.015625 Z M 172.53125 41.015625 " fill-opacity="1" fill-rule="nonzero"/><path fill="rgb(0%, 0%, 0%)" d="M 192.460938 37.167969 C 192.460938 37.953125 192.261719 38.648438 191.859375 39.257812 C 191.464844 39.871094 190.890625 40.34375 190.140625 40.683594 C 189.386719 41.019531 188.503906 41.191406 187.496094 41.191406 C 186.648438 41.191406 185.941406 41.132812 185.367188 41.015625 C 184.800781 40.894531 184.207031 40.683594 183.582031 40.386719 L 183.582031 37.335938 C 184.234375 37.675781 184.914062 37.941406 185.617188 38.128906 C 186.324219 38.316406 186.976562 38.40625 187.570312 38.40625 C 188.074219 38.40625 188.441406 38.324219 188.679688 38.148438 C 188.917969 37.972656 189.039062 37.742188 189.039062 37.464844 C 189.039062 37.285156 188.988281 37.132812 188.890625 37.003906 C 188.800781 36.871094 188.648438 36.742188 188.4375 36.613281 C 188.226562 36.480469 187.667969 36.207031 186.753906 35.800781 C 185.929688 35.425781 185.304688 35.058594 184.886719 34.710938 C 184.472656 34.351562 184.167969 33.945312 183.972656 33.488281 C 183.773438 33.03125 183.675781 32.496094 183.675781 31.871094 C 183.675781 30.703125 184.097656 29.796875 184.941406 29.140625 C 185.792969 28.488281 186.960938 28.160156 188.449219 28.160156 C 189.761719 28.160156 191.097656 28.464844 192.460938 29.066406 L 191.417969 31.710938 C 190.234375 31.171875 189.207031 30.898438 188.347656 30.898438 C 187.902344 30.898438 187.578125 30.980469 187.375 31.140625 C 187.171875 31.292969 187.070312 31.484375 187.070312 31.710938 C 187.070312 31.960938 187.199219 32.183594 187.457031 32.378906 C 187.71875 32.578125 188.414062 32.933594 189.546875 33.453125 C 190.644531 33.945312 191.402344 34.476562 191.824219 35.042969 C 192.25 35.605469 192.460938 36.3125 192.460938 37.167969 Z M 192.460938 37.167969 " fill-opacity="1" fill-rule="nonzero"/><path fill="rgb(0%, 0%, 0%)" d="M 198.695312 41.191406 C 197.089844 41.191406 195.875 40.757812 195.042969 39.886719 C 194.214844 39.019531 193.804688 37.773438 193.804688 36.152344 C 193.804688 34.523438 194.25 33.265625 195.144531 32.371094 C 196.035156 31.46875 197.308594 31.019531 198.964844 31.019531 C 200.101562 31.019531 201.175781 31.269531 202.179688 31.769531 L 201.183594 34.273438 C 200.777344 34.097656 200.398438 33.957031 200.046875 33.847656 C 199.699219 33.738281 199.335938 33.683594 198.964844 33.683594 C 198.414062 33.683594 197.988281 33.898438 197.6875 34.328125 C 197.390625 34.753906 197.242188 35.355469 197.242188 36.132812 C 197.242188 37.707031 197.820312 38.492188 198.980469 38.492188 C 199.980469 38.492188 200.933594 38.203125 201.847656 37.621094 L 201.847656 40.324219 C 200.972656 40.902344 199.921875 41.191406 198.695312 41.191406 Z M 198.695312 41.191406 " fill-opacity="1" fill-rule="nonzero"/></svg>