<svg xmlns="http://www.w3.org/2000/svg" xmlns:xlink="http://www.w3.org/1999/xlink" width="500" zoomAndPan="magnify" viewBox="0 0 375 374.999991" height="500" preserveAspectRatio="xMidYMid meet" version="1.0"><defs><g><g id="id1"/><g id="id2"/></g><clipPath id="id3"><path d="M 31 201 L 48 201 L 48 206.953125 L 31 206.953125 Z M 31 201 " clip-rule="nonzero"/></clipPath><clipPath id="id4"><path d="M 18.976562 156.703125 L 56.476562 156.703125 L 56.476562 206.953125 L 18.976562 206.953125 Z M 18.976562 156.703125 " clip-rule="nonzero"/></clipPath><clipPath id="id5"><path d="M 18.976562 189 L 26 189 L 26 198 L 18.976562 198 Z M 18.976562 189 " clip-rule="nonzero"/></clipPath></defs><path fill="rgb(65.879822%, 69.018555%, 73.728943%)" d="M 36.097656 188.3125 L 42.613281 188.3125 L 42.613281 196.417969 L 36.097656 196.417969 Z M 36.097656 188.3125 " fill-opacity="1" fill-rule="nonzero"/><path fill="rgb(65.879822%, 69.018555%, 73.728943%)" d="M 42.613281 176.96875 L 53.199219 176.96875 C 54.550781 176.96875 55.644531 178.054688 55.644531 179.398438 C 55.644531 180.742188 54.550781 181.828125 53.199219 181.828125 L 42.613281 181.828125 " fill-opacity="1" fill-rule="nonzero"/><path fill="rgb(45.878601%, 50.588989%, 56.469727%)" d="M 42.613281 176.96875 L 45.871094 176.96875 L 45.871094 181.828125 L 42.613281 181.828125 Z M 42.613281 176.96875 " fill-opacity="1" fill-rule="nonzero"/><path fill="rgb(75.689697%, 78.42865%, 81.959534%)" d="M 36.097656 173.726562 L 42.613281 173.726562 L 42.613281 185.070312 L 36.097656 185.070312 Z M 36.097656 173.726562 " fill-opacity="1" fill-rule="nonzero"/><path fill="rgb(45.878601%, 50.588989%, 56.469727%)" d="M 40.984375 170.484375 L 40.984375 166.808594 C 40.503906 167.082031 39.949219 167.242188 39.355469 167.242188 C 38.761719 167.242188 38.203125 167.082031 37.726562 166.808594 L 37.726562 170.484375 Z M 40.984375 170.484375 " fill-opacity="1" fill-rule="nonzero"/><path fill="rgb(45.878601%, 50.588989%, 56.469727%)" d="M 42.175781 165.621094 L 47.242188 165.621094 C 48.972656 165.621094 50.628906 164.9375 51.851562 163.722656 L 55.136719 160.449219 C 55.460938 160.128906 55.644531 159.691406 55.644531 159.234375 C 55.644531 158.285156 54.871094 157.515625 53.914062 157.515625 C 53.457031 157.515625 53.019531 157.695312 52.695312 158.019531 L 49.265625 161.429688 C 48.65625 162.035156 47.828125 162.378906 46.964844 162.378906 L 42.175781 162.378906 C 42.453125 162.855469 42.613281 163.410156 42.613281 164 C 42.613281 164.589844 42.453125 165.144531 42.175781 165.621094 Z M 42.175781 165.621094 " fill-opacity="1" fill-rule="nonzero"/><path fill="rgb(65.879822%, 69.018555%, 73.728943%)" d="M 44.242188 173.726562 L 34.46875 173.726562 C 33.566406 173.726562 32.839844 173 32.839844 172.105469 C 32.839844 171.207031 33.566406 170.484375 34.46875 170.484375 L 44.242188 170.484375 C 45.140625 170.484375 45.871094 171.207031 45.871094 172.105469 C 45.871094 173 45.140625 173.726562 44.242188 173.726562 Z M 44.242188 173.726562 " fill-opacity="1" fill-rule="nonzero"/><path fill="rgb(53.329468%, 57.249451%, 62.748718%)" d="M 43.425781 188.3125 L 35.28125 188.3125 C 34.382812 188.3125 33.652344 187.589844 33.652344 186.691406 C 33.652344 185.796875 34.382812 185.070312 35.28125 185.070312 L 43.425781 185.070312 C 44.324219 185.070312 45.054688 185.796875 45.054688 186.691406 C 45.054688 187.589844 44.324219 188.3125 43.425781 188.3125 Z M 43.425781 188.3125 " fill-opacity="1" fill-rule="nonzero"/><path fill="rgb(53.329468%, 57.249451%, 62.748718%)" d="M 42.613281 164 C 42.613281 164.429688 42.527344 164.84375 42.363281 165.238281 C 42.199219 165.636719 41.964844 165.988281 41.65625 166.292969 C 41.351562 166.59375 41 166.828125 40.601562 166.996094 C 40.203125 167.160156 39.785156 167.242188 39.355469 167.242188 C 38.921875 167.242188 38.507812 167.160156 38.105469 166.996094 C 37.707031 166.828125 37.355469 166.59375 37.050781 166.292969 C 36.746094 165.988281 36.507812 165.636719 36.34375 165.238281 C 36.179688 164.84375 36.097656 164.429688 36.097656 164 C 36.097656 163.570312 36.179688 163.15625 36.34375 162.757812 C 36.507812 162.359375 36.746094 162.011719 37.050781 161.707031 C 37.355469 161.402344 37.707031 161.167969 38.105469 161.003906 C 38.507812 160.839844 38.921875 160.757812 39.355469 160.757812 C 39.785156 160.757812 40.203125 160.839844 40.601562 161.003906 C 41 161.167969 41.351562 161.402344 41.65625 161.707031 C 41.964844 162.011719 42.199219 162.359375 42.363281 162.757812 C 42.527344 163.15625 42.613281 163.570312 42.613281 164 Z M 42.613281 164 " fill-opacity="1" fill-rule="nonzero"/><path fill="rgb(65.879822%, 69.018555%, 73.728943%)" d="M 36.097656 176.96875 L 27.953125 176.96875 C 23.453125 176.96875 19.808594 180.59375 19.808594 185.070312 L 19.808594 186.691406 L 24.695312 186.691406 L 24.695312 185.070312 C 24.695312 183.28125 26.152344 181.828125 27.953125 181.828125 L 36.097656 181.828125 " fill-opacity="1" fill-rule="nonzero"/><g clip-path="url(#id3)"><path fill="rgb(45.878601%, 50.588989%, 56.469727%)" d="M 47.5 206.144531 L 31.210938 206.144531 L 31.210938 202.902344 C 31.210938 202.007812 31.9375 201.28125 32.839844 201.28125 L 45.871094 201.28125 C 46.769531 201.28125 47.5 202.007812 47.5 202.902344 Z M 47.5 206.144531 " fill-opacity="1" fill-rule="nonzero"/></g><path fill="rgb(53.329468%, 57.249451%, 62.748718%)" d="M 32.839844 201.28125 L 32.839844 198.039062 C 32.839844 197.144531 33.566406 196.417969 34.46875 196.417969 L 44.242188 196.417969 C 45.140625 196.417969 45.871094 197.144531 45.871094 198.039062 L 45.871094 201.28125 " fill-opacity="1" fill-rule="nonzero"/><path fill="rgb(78.039551%, 88.62915%, 98.81897%)" d="M 22.25 189.933594 L 20.296875 192.527344 C 19.980469 192.949219 19.808594 193.460938 19.808594 193.988281 C 19.808594 195.328125 20.902344 196.417969 22.25 196.417969 C 23.601562 196.417969 24.695312 195.328125 24.695312 193.988281 C 24.695312 193.460938 24.523438 192.949219 24.203125 192.527344 Z M 22.25 189.933594 " fill-opacity="1" fill-rule="nonzero"/><path fill="rgb(65.879822%, 69.018555%, 73.728943%)" d="M 38.539062 163.1875 L 40.167969 163.1875 L 40.167969 164.808594 L 38.539062 164.808594 Z M 38.539062 163.1875 " fill-opacity="1" fill-rule="nonzero"/><g clip-path="url(#id4)"><path fill="rgb(0%, 0%, 0%)" d="M 53.199219 176.15625 L 43.425781 176.15625 L 43.425781 174.535156 L 44.242188 174.535156 C 45.585938 174.535156 46.683594 173.445312 46.683594 172.105469 C 46.683594 170.761719 45.585938 169.671875 44.242188 169.671875 L 41.796875 169.671875 L 41.796875 167.21875 C 42.097656 166.992188 42.363281 166.730469 42.589844 166.429688 L 47.242188 166.429688 C 49.199219 166.429688 51.039062 165.671875 52.425781 164.296875 L 55.710938 161.023438 C 56.191406 160.546875 56.457031 159.910156 56.457031 159.234375 C 56.457031 157.839844 55.316406 156.707031 53.914062 156.707031 C 53.234375 156.707031 52.597656 156.96875 52.117188 157.445312 L 48.6875 160.855469 C 48.234375 161.308594 47.605469 161.566406 46.964844 161.566406 L 42.589844 161.566406 C 41.847656 160.589844 40.679688 159.945312 39.351562 159.945312 C 37.105469 159.945312 35.28125 161.765625 35.28125 164 C 35.28125 165.316406 35.925781 166.480469 36.910156 167.21875 L 36.910156 169.671875 L 34.464844 169.671875 C 33.121094 169.671875 32.023438 170.761719 32.023438 172.105469 C 32.023438 173.445312 33.121094 174.535156 34.464844 174.535156 L 35.28125 174.535156 L 35.28125 176.15625 L 27.953125 176.15625 C 23.011719 176.15625 18.992188 180.15625 18.992188 185.070312 L 18.992188 186.691406 C 18.992188 187.140625 19.355469 187.503906 19.808594 187.503906 L 24.695312 187.503906 C 24.910156 187.503906 25.117188 187.417969 25.269531 187.265625 C 25.421875 187.113281 25.507812 186.90625 25.507812 186.691406 L 25.507812 185.070312 C 25.507812 183.730469 26.605469 182.640625 27.949219 182.640625 L 35.28125 182.640625 L 35.28125 184.261719 C 33.933594 184.261719 32.835938 185.351562 32.835938 186.691406 C 32.835938 188.03125 33.933594 189.121094 35.28125 189.121094 L 35.28125 195.609375 L 34.464844 195.609375 C 33.121094 195.609375 32.023438 196.699219 32.023438 198.039062 L 32.023438 200.621094 C 31.078125 200.957031 30.394531 201.847656 30.394531 202.902344 L 30.394531 206.144531 C 30.394531 206.59375 30.757812 206.953125 31.207031 206.953125 L 47.496094 206.953125 C 47.945312 206.953125 48.3125 206.59375 48.3125 206.144531 L 48.3125 202.902344 C 48.3125 201.847656 47.628906 200.957031 46.683594 200.621094 L 46.683594 198.039062 C 46.683594 196.699219 45.585938 195.609375 44.238281 195.609375 L 43.425781 195.609375 L 43.425781 189.125 C 44.773438 189.125 45.867188 188.03125 45.867188 186.691406 C 45.867188 185.351562 44.773438 184.261719 43.425781 184.261719 L 43.425781 182.640625 L 53.199219 182.640625 C 54.996094 182.640625 56.457031 181.183594 56.457031 179.398438 C 56.457031 177.609375 54.996094 176.15625 53.199219 176.15625 Z M 46.964844 163.1875 C 48.050781 163.1875 49.074219 162.765625 49.84375 162 L 53.269531 158.589844 C 53.441406 158.417969 53.671875 158.324219 53.914062 158.324219 C 54.417969 158.324219 54.828125 158.734375 54.828125 159.234375 C 54.828125 159.476562 54.730469 159.707031 54.558594 159.878906 L 51.273438 163.148438 C 50.195312 164.21875 48.765625 164.808594 47.242188 164.808594 L 43.34375 164.808594 C 43.394531 164.546875 43.425781 164.277344 43.425781 164 C 43.425781 163.71875 43.394531 163.449219 43.34375 163.1875 Z M 39.351562 161.566406 C 40.699219 161.566406 41.796875 162.660156 41.796875 164 C 41.796875 165.339844 40.699219 166.429688 39.351562 166.429688 C 38.007812 166.429688 36.910156 165.339844 36.910156 164 C 36.910156 162.65625 38.007812 161.566406 39.351562 161.566406 Z M 38.539062 167.96875 C 38.800781 168.023438 39.074219 168.050781 39.351562 168.050781 C 39.632812 168.050781 39.90625 168.023438 40.167969 167.96875 L 40.167969 169.671875 L 38.539062 169.671875 Z M 33.652344 172.105469 C 33.652344 171.65625 34.015625 171.292969 34.464844 171.292969 L 44.242188 171.292969 C 44.6875 171.292969 45.054688 171.65625 45.054688 172.105469 C 45.054688 172.550781 44.6875 172.914062 44.242188 172.914062 L 34.464844 172.914062 C 34.015625 172.914062 33.652344 172.550781 33.652344 172.105469 Z M 27.949219 181.019531 C 25.703125 181.019531 23.878906 182.835938 23.878906 185.070312 L 23.878906 185.882812 L 20.621094 185.882812 L 20.621094 185.070312 C 20.621094 181.050781 23.910156 177.777344 27.953125 177.777344 L 35.28125 177.777344 L 35.28125 181.019531 Z M 46.683594 205.332031 L 32.023438 205.332031 L 32.023438 202.902344 C 32.023438 202.453125 32.386719 202.089844 32.835938 202.089844 L 45.867188 202.089844 C 46.316406 202.089844 46.683594 202.453125 46.683594 202.902344 Z M 45.054688 198.039062 L 45.054688 200.472656 L 33.652344 200.472656 L 33.652344 198.039062 C 33.652344 197.59375 34.015625 197.230469 34.464844 197.230469 L 44.238281 197.230469 C 44.6875 197.230469 45.054688 197.59375 45.054688 198.039062 Z M 41.796875 195.609375 L 36.910156 195.609375 L 36.910156 189.125 L 41.796875 189.125 Z M 44.238281 186.691406 C 44.238281 187.140625 43.875 187.503906 43.425781 187.503906 L 35.28125 187.503906 C 34.832031 187.503906 34.464844 187.140625 34.464844 186.691406 C 34.464844 186.246094 34.832031 185.882812 35.28125 185.882812 L 43.425781 185.882812 C 43.875 185.882812 44.238281 186.246094 44.238281 186.691406 Z M 36.910156 184.261719 L 36.910156 174.535156 L 41.796875 174.535156 L 41.796875 184.261719 Z M 43.425781 177.777344 L 45.054688 177.777344 L 45.054688 181.019531 L 43.425781 181.019531 Z M 53.199219 181.019531 L 46.683594 181.019531 L 46.683594 177.777344 L 53.199219 177.777344 C 54.097656 177.777344 54.828125 178.503906 54.828125 179.398438 C 54.828125 180.292969 54.097656 181.019531 53.199219 181.019531 Z M 53.199219 181.019531 " fill-opacity="1" fill-rule="nonzero"/></g><g clip-path="url(#id5)"><path fill="rgb(0%, 0%, 0%)" d="M 22.902344 189.449219 C 22.746094 189.242188 22.507812 189.125 22.25 189.125 C 21.992188 189.125 21.753906 189.242188 21.597656 189.449219 L 19.644531 192.042969 C 19.222656 192.597656 18.992188 193.289062 18.992188 193.988281 C 18.992188 195.773438 20.453125 197.226562 22.25 197.226562 C 24.046875 197.226562 25.507812 195.773438 25.507812 193.984375 C 25.507812 193.289062 25.277344 192.597656 24.855469 192.042969 Z M 22.25 195.605469 C 21.351562 195.605469 20.621094 194.878906 20.621094 193.984375 C 20.621094 193.636719 20.738281 193.292969 20.945312 193.011719 L 22.25 191.285156 L 23.550781 193.011719 C 23.761719 193.292969 23.878906 193.636719 23.878906 193.988281 C 23.878906 194.878906 23.148438 195.605469 22.25 195.605469 Z M 22.25 195.605469 " fill-opacity="1" fill-rule="nonzero"/></g><path fill="rgb(0%, 0%, 0%)" d="M 38.539062 163.1875 L 40.167969 163.1875 L 40.167969 164.808594 L 38.539062 164.808594 Z M 38.539062 163.1875 " fill-opacity="1" fill-rule="nonzero"/><g fill="rgb(0%, 0%, 0%)" fill-opacity="1"><g transform="translate(176.528914, 199.009821)"><g/></g></g><g fill="rgb(0%, 0%, 0%)" fill-opacity="1"><g transform="translate(64.028935, 193.207298)"><g><path d="M 11.84375 -16.984375 C 10.46875 -16.984375 9.394531 -16.414062 8.625 -15.28125 C 7.851562 -14.15625 7.46875 -12.601562 7.46875 -10.625 C 7.46875 -6.5 9.035156 -4.4375 12.171875 -4.4375 C 13.117188 -4.4375 14.035156 -4.566406 14.921875 -4.828125 C 15.816406 -5.097656 16.710938 -5.414062 17.609375 -5.78125 L 17.609375 -0.890625 C 15.816406 -0.0976562 13.796875 0.296875 11.546875 0.296875 C 8.304688 0.296875 5.828125 -0.640625 4.109375 -2.515625 C 2.390625 -4.390625 1.53125 -7.101562 1.53125 -10.65625 C 1.53125 -12.863281 1.945312 -14.804688 2.78125 -16.484375 C 3.613281 -18.171875 4.8125 -19.460938 6.375 -20.359375 C 7.945312 -21.265625 9.789062 -21.71875 11.90625 -21.71875 C 14.21875 -21.71875 16.429688 -21.21875 18.546875 -20.21875 L 16.765625 -15.65625 C 15.984375 -16.03125 15.195312 -16.34375 14.40625 -16.59375 C 13.613281 -16.851562 12.757812 -16.984375 11.84375 -16.984375 Z M 11.84375 -16.984375 "/></g></g><g transform="translate(83.496708, 193.207298)"><g><path d="M 7.703125 0 L 1.984375 0 L 1.984375 -22.796875 L 7.703125 -22.796875 Z M 7.703125 0 "/></g></g><g transform="translate(93.193973, 193.207298)"><g><path d="M 9.984375 0.296875 C 7.222656 0.296875 5.078125 -0.4375 3.546875 -1.90625 C 2.023438 -3.375 1.265625 -5.46875 1.265625 -8.1875 C 1.265625 -10.988281 1.972656 -13.140625 3.390625 -14.640625 C 4.804688 -16.140625 6.828125 -16.890625 9.453125 -16.890625 C 11.953125 -16.890625 13.878906 -16.238281 15.234375 -14.9375 C 16.597656 -13.632812 17.28125 -11.753906 17.28125 -9.296875 L 17.28125 -6.75 L 7.046875 -6.75 C 7.085938 -5.820312 7.425781 -5.09375 8.0625 -4.5625 C 8.707031 -4.039062 9.578125 -3.78125 10.671875 -3.78125 C 11.679688 -3.78125 12.609375 -3.875 13.453125 -4.0625 C 14.296875 -4.25 15.210938 -4.578125 16.203125 -5.046875 L 16.203125 -0.921875 C 15.304688 -0.460938 14.378906 -0.144531 13.421875 0.03125 C 12.460938 0.207031 11.316406 0.296875 9.984375 0.296875 Z M 9.65625 -13 C 8.976562 -13 8.410156 -12.785156 7.953125 -12.359375 C 7.503906 -11.929688 7.238281 -11.265625 7.15625 -10.359375 L 12.078125 -10.359375 C 12.066406 -11.160156 11.84375 -11.800781 11.40625 -12.28125 C 10.96875 -12.757812 10.382812 -13 9.65625 -13 Z M 9.65625 -13 "/></g></g><g transform="translate(111.738893, 193.207298)"><g><path d="M 12.109375 -16.890625 C 13.921875 -16.890625 15.351562 -16.128906 16.40625 -14.609375 C 17.46875 -13.097656 18 -11.003906 18 -8.328125 C 18 -5.640625 17.460938 -3.53125 16.390625 -2 C 15.328125 -0.46875 13.84375 0.296875 11.9375 0.296875 C 11.320312 0.296875 10.773438 0.226562 10.296875 0.09375 C 9.816406 -0.0390625 9.390625 -0.222656 9.015625 -0.453125 C 8.640625 -0.691406 8.203125 -1.082031 7.703125 -1.625 L 7.359375 -1.625 L 6.453125 0 L 1.984375 0 L 1.984375 -22.796875 L 7.703125 -22.796875 L 7.703125 -17.640625 C 7.703125 -17.023438 7.632812 -15.960938 7.5 -14.453125 L 7.703125 -14.453125 C 8.265625 -15.316406 8.90625 -15.9375 9.625 -16.3125 C 10.351562 -16.695312 11.179688 -16.890625 12.109375 -16.890625 Z M 10.015625 -12.390625 C 9.210938 -12.390625 8.625 -12.109375 8.25 -11.546875 C 7.882812 -10.992188 7.703125 -10.125 7.703125 -8.9375 L 7.703125 -8.125 C 7.703125 -6.769531 7.882812 -5.796875 8.25 -5.203125 C 8.625 -4.617188 9.234375 -4.328125 10.078125 -4.328125 C 10.753906 -4.328125 11.269531 -4.671875 11.625 -5.359375 C 11.988281 -6.046875 12.171875 -7.054688 12.171875 -8.390625 C 12.171875 -11.054688 11.453125 -12.390625 10.015625 -12.390625 Z M 10.015625 -12.390625 "/></g></g><g transform="translate(131.030884, 193.207298)"><g><path d="M 9.984375 0.296875 C 7.222656 0.296875 5.078125 -0.4375 3.546875 -1.90625 C 2.023438 -3.375 1.265625 -5.46875 1.265625 -8.1875 C 1.265625 -10.988281 1.972656 -13.140625 3.390625 -14.640625 C 4.804688 -16.140625 6.828125 -16.890625 9.453125 -16.890625 C 11.953125 -16.890625 13.878906 -16.238281 15.234375 -14.9375 C 16.597656 -13.632812 17.28125 -11.753906 17.28125 -9.296875 L 17.28125 -6.75 L 7.046875 -6.75 C 7.085938 -5.820312 7.425781 -5.09375 8.0625 -4.5625 C 8.707031 -4.039062 9.578125 -3.78125 10.671875 -3.78125 C 11.679688 -3.78125 12.609375 -3.875 13.453125 -4.0625 C 14.296875 -4.25 15.210938 -4.578125 16.203125 -5.046875 L 16.203125 -0.921875 C 15.304688 -0.460938 14.378906 -0.144531 13.421875 0.03125 C 12.460938 0.207031 11.316406 0.296875 9.984375 0.296875 Z M 9.65625 -13 C 8.976562 -13 8.410156 -12.785156 7.953125 -12.359375 C 7.503906 -11.929688 7.238281 -11.265625 7.15625 -10.359375 L 12.078125 -10.359375 C 12.066406 -11.160156 11.84375 -11.800781 11.40625 -12.28125 C 10.96875 -12.757812 10.382812 -13 9.65625 -13 Z M 9.65625 -13 "/></g></g><g transform="translate(149.575805, 193.207298)"><g><path d="M 12 -16.890625 C 12.5 -16.890625 12.972656 -16.847656 13.421875 -16.765625 L 13.734375 -16.71875 L 13.234375 -11.3125 C 12.765625 -11.425781 12.113281 -11.484375 11.28125 -11.484375 C 10.03125 -11.484375 9.117188 -11.195312 8.546875 -10.625 C 7.984375 -10.050781 7.703125 -9.226562 7.703125 -8.15625 L 7.703125 0 L 1.984375 0 L 1.984375 -16.59375 L 6.234375 -16.59375 L 7.140625 -13.953125 L 7.40625 -13.953125 C 7.882812 -14.828125 8.550781 -15.535156 9.40625 -16.078125 C 10.257812 -16.617188 11.125 -16.890625 12 -16.890625 Z M 12 -16.890625 "/></g></g><g transform="translate(163.652952, 193.207298)"><g/></g><g transform="translate(171.445921, 193.207298)"><g><path d="M 16.3125 -6.5 C 16.3125 -5.175781 15.972656 -4 15.296875 -2.96875 C 14.628906 -1.9375 13.660156 -1.132812 12.390625 -0.5625 C 11.117188 0.0078125 9.628906 0.296875 7.921875 0.296875 C 6.492188 0.296875 5.296875 0.195312 4.328125 0 C 3.367188 -0.207031 2.363281 -0.5625 1.3125 -1.0625 L 1.3125 -6.21875 C 2.414062 -5.644531 3.5625 -5.195312 4.75 -4.875 C 5.945312 -4.5625 7.046875 -4.40625 8.046875 -4.40625 C 8.898438 -4.40625 9.523438 -4.550781 9.921875 -4.84375 C 10.328125 -5.144531 10.53125 -5.53125 10.53125 -6 C 10.53125 -6.300781 10.445312 -6.5625 10.28125 -6.78125 C 10.125 -7 9.867188 -7.21875 9.515625 -7.4375 C 9.160156 -7.664062 8.210938 -8.125 6.671875 -8.8125 C 5.273438 -9.445312 4.222656 -10.0625 3.515625 -10.65625 C 2.816406 -11.257812 2.300781 -11.945312 1.96875 -12.71875 C 1.632812 -13.488281 1.46875 -14.398438 1.46875 -15.453125 C 1.46875 -17.421875 2.179688 -18.957031 3.609375 -20.0625 C 5.046875 -21.164062 7.019531 -21.71875 9.53125 -21.71875 C 11.75 -21.71875 14.007812 -21.207031 16.3125 -20.1875 L 14.546875 -15.71875 C 12.546875 -16.632812 10.816406 -17.09375 9.359375 -17.09375 C 8.609375 -17.09375 8.0625 -16.957031 7.71875 -16.6875 C 7.375 -16.425781 7.203125 -16.101562 7.203125 -15.71875 C 7.203125 -15.300781 7.421875 -14.925781 7.859375 -14.59375 C 8.296875 -14.257812 9.472656 -13.65625 11.390625 -12.78125 C 13.242188 -11.945312 14.523438 -11.050781 15.234375 -10.09375 C 15.953125 -9.144531 16.3125 -7.945312 16.3125 -6.5 Z M 16.3125 -6.5 "/></g></g><g transform="translate(188.760373, 193.207298)"><g><path d="M 12.796875 0 L 11.703125 -2.203125 L 11.59375 -2.203125 C 10.820312 -1.242188 10.035156 -0.585938 9.234375 -0.234375 C 8.429688 0.117188 7.394531 0.296875 6.125 0.296875 C 4.5625 0.296875 3.328125 -0.171875 2.421875 -1.109375 C 1.523438 -2.046875 1.078125 -3.363281 1.078125 -5.0625 C 1.078125 -6.832031 1.691406 -8.148438 2.921875 -9.015625 C 4.160156 -9.878906 5.945312 -10.363281 8.28125 -10.46875 L 11.046875 -10.5625 L 11.046875 -10.796875 C 11.046875 -12.160156 10.375 -12.84375 9.03125 -12.84375 C 7.8125 -12.84375 6.269531 -12.429688 4.40625 -11.609375 L 2.75 -15.390625 C 4.6875 -16.390625 7.128906 -16.890625 10.078125 -16.890625 C 12.203125 -16.890625 13.847656 -16.359375 15.015625 -15.296875 C 16.179688 -14.242188 16.765625 -12.773438 16.765625 -10.890625 L 16.765625 0 Z M 8.5625 -3.75 C 9.25 -3.75 9.835938 -3.96875 10.328125 -4.40625 C 10.828125 -4.84375 11.078125 -5.414062 11.078125 -6.125 L 11.078125 -7.40625 L 9.75 -7.359375 C 7.863281 -7.285156 6.921875 -6.59375 6.921875 -5.28125 C 6.921875 -4.257812 7.46875 -3.75 8.5625 -3.75 Z M 8.5625 -3.75 "/></g></g><g transform="translate(207.451778, 193.207298)"><g><path d="M 12.453125 0 L 12.453125 -9.046875 C 12.453125 -10.148438 12.289062 -10.984375 11.96875 -11.546875 C 11.65625 -12.109375 11.144531 -12.390625 10.4375 -12.390625 C 9.476562 -12.390625 8.78125 -12.003906 8.34375 -11.234375 C 7.914062 -10.460938 7.703125 -9.140625 7.703125 -7.265625 L 7.703125 0 L 1.984375 0 L 1.984375 -16.59375 L 6.296875 -16.59375 L 7.015625 -14.546875 L 7.359375 -14.546875 C 7.847656 -15.328125 8.519531 -15.910156 9.375 -16.296875 C 10.238281 -16.691406 11.234375 -16.890625 12.359375 -16.890625 C 14.203125 -16.890625 15.628906 -16.359375 16.640625 -15.296875 C 17.660156 -14.234375 18.171875 -12.734375 18.171875 -10.796875 L 18.171875 0 Z M 12.453125 0 "/></g></g><g transform="translate(227.549433, 193.207298)"><g><path d="M 10.109375 -4.234375 C 10.878906 -4.234375 11.800781 -4.425781 12.875 -4.8125 L 12.875 -0.625 C 12.101562 -0.289062 11.367188 -0.0546875 10.671875 0.078125 C 9.972656 0.222656 9.15625 0.296875 8.21875 0.296875 C 6.289062 0.296875 4.898438 -0.171875 4.046875 -1.109375 C 3.203125 -2.054688 2.78125 -3.507812 2.78125 -5.46875 L 2.78125 -12.3125 L 0.78125 -12.3125 L 0.78125 -14.640625 L 3.328125 -16.4375 L 4.8125 -19.921875 L 8.5625 -19.921875 L 8.5625 -16.59375 L 12.625 -16.59375 L 12.625 -12.3125 L 8.5625 -12.3125 L 8.5625 -5.84375 C 8.5625 -4.769531 9.078125 -4.234375 10.109375 -4.234375 Z M 10.109375 -4.234375 "/></g></g><g transform="translate(241.34826, 193.207298)"><g><path d="M 17.828125 -8.328125 C 17.828125 -5.617188 17.097656 -3.503906 15.640625 -1.984375 C 14.179688 -0.460938 12.132812 0.296875 9.5 0.296875 C 6.988281 0.296875 4.988281 -0.476562 3.5 -2.03125 C 2.007812 -3.582031 1.265625 -5.679688 1.265625 -8.328125 C 1.265625 -11.035156 1.992188 -13.140625 3.453125 -14.640625 C 4.910156 -16.140625 6.957031 -16.890625 9.59375 -16.890625 C 11.226562 -16.890625 12.671875 -16.539062 13.921875 -15.84375 C 15.171875 -15.15625 16.132812 -14.160156 16.8125 -12.859375 C 17.488281 -11.566406 17.828125 -10.054688 17.828125 -8.328125 Z M 7.078125 -8.328125 C 7.078125 -6.910156 7.265625 -5.828125 7.640625 -5.078125 C 8.023438 -4.328125 8.664062 -3.953125 9.5625 -3.953125 C 10.457031 -3.953125 11.085938 -4.328125 11.453125 -5.078125 C 11.816406 -5.828125 12 -6.910156 12 -8.328125 C 12 -9.742188 11.8125 -10.8125 11.4375 -11.53125 C 11.070312 -12.257812 10.4375 -12.625 9.53125 -12.625 C 8.65625 -12.625 8.023438 -12.265625 7.640625 -11.546875 C 7.265625 -10.828125 7.078125 -9.753906 7.078125 -8.328125 Z M 7.078125 -8.328125 "/></g></g><g transform="translate(260.46447, 193.207298)"><g><path d="M 14.796875 -5.09375 C 14.796875 -3.320312 14.1875 -1.976562 12.96875 -1.0625 C 11.757812 -0.15625 10.023438 0.296875 7.765625 0.296875 C 6.535156 0.296875 5.460938 0.226562 4.546875 0.09375 C 3.640625 -0.0390625 2.710938 -0.28125 1.765625 -0.625 L 1.765625 -5.21875 C 2.660156 -4.820312 3.632812 -4.5 4.6875 -4.25 C 5.75 -4 6.695312 -3.875 7.53125 -3.875 C 8.769531 -3.875 9.390625 -4.15625 9.390625 -4.71875 C 9.390625 -5.007812 9.210938 -5.269531 8.859375 -5.5 C 8.515625 -5.726562 7.507812 -6.175781 5.84375 -6.84375 C 4.320312 -7.46875 3.257812 -8.175781 2.65625 -8.96875 C 2.050781 -9.769531 1.75 -10.78125 1.75 -12 C 1.75 -13.539062 2.34375 -14.738281 3.53125 -15.59375 C 4.71875 -16.457031 6.398438 -16.890625 8.578125 -16.890625 C 9.671875 -16.890625 10.695312 -16.769531 11.65625 -16.53125 C 12.625 -16.289062 13.625 -15.941406 14.65625 -15.484375 L 13.109375 -11.796875 C 12.347656 -12.140625 11.539062 -12.425781 10.6875 -12.65625 C 9.84375 -12.894531 9.148438 -13.015625 8.609375 -13.015625 C 7.671875 -13.015625 7.203125 -12.785156 7.203125 -12.328125 C 7.203125 -12.046875 7.363281 -11.804688 7.6875 -11.609375 C 8.019531 -11.410156 8.96875 -11.003906 10.53125 -10.390625 C 11.695312 -9.910156 12.5625 -9.441406 13.125 -8.984375 C 13.695312 -8.523438 14.117188 -7.984375 14.390625 -7.359375 C 14.660156 -6.742188 14.796875 -5.988281 14.796875 -5.09375 Z M 14.796875 -5.09375 "/></g></g><g transform="translate(276.460563, 193.207298)"><g><path d="M 7.296875 -4.375 L 7.5 -4.046875 C 6.550781 -0.328125 5.691406 2.410156 4.921875 4.171875 L 0.828125 4.171875 C 1.117188 2.828125 1.40625 1.316406 1.6875 -0.359375 C 1.976562 -2.035156 2.175781 -3.375 2.28125 -4.375 Z M 7.296875 -4.375 "/></g></g><g transform="translate(285.733023, 193.207298)"><g/></g><g transform="translate(293.525992, 193.207298)"><g><path d="M 11.640625 0 L 7.265625 -15.421875 L 7.140625 -15.421875 C 7.335938 -12.796875 7.4375 -10.753906 7.4375 -9.296875 L 7.4375 0 L 2.3125 0 L 2.3125 -21.421875 L 10.015625 -21.421875 L 14.484375 -6.21875 L 14.609375 -6.21875 L 18.984375 -21.421875 L 26.703125 -21.421875 L 26.703125 0 L 21.390625 0 L 21.390625 -9.390625 C 21.390625 -9.878906 21.394531 -10.421875 21.40625 -11.015625 C 21.425781 -11.609375 21.492188 -13.066406 21.609375 -15.390625 L 21.46875 -15.390625 L 17.15625 0 Z M 11.640625 0 "/></g></g><g transform="translate(322.529896, 193.207298)"><g><path d="M 16.3125 -6.5 C 16.3125 -5.175781 15.972656 -4 15.296875 -2.96875 C 14.628906 -1.9375 13.660156 -1.132812 12.390625 -0.5625 C 11.117188 0.0078125 9.628906 0.296875 7.921875 0.296875 C 6.492188 0.296875 5.296875 0.195312 4.328125 0 C 3.367188 -0.207031 2.363281 -0.5625 1.3125 -1.0625 L 1.3125 -6.21875 C 2.414062 -5.644531 3.5625 -5.195312 4.75 -4.875 C 5.945312 -4.5625 7.046875 -4.40625 8.046875 -4.40625 C 8.898438 -4.40625 9.523438 -4.550781 9.921875 -4.84375 C 10.328125 -5.144531 10.53125 -5.53125 10.53125 -6 C 10.53125 -6.300781 10.445312 -6.5625 10.28125 -6.78125 C 10.125 -7 9.867188 -7.21875 9.515625 -7.4375 C 9.160156 -7.664062 8.210938 -8.125 6.671875 -8.8125 C 5.273438 -9.445312 4.222656 -10.0625 3.515625 -10.65625 C 2.816406 -11.257812 2.300781 -11.945312 1.96875 -12.71875 C 1.632812 -13.488281 1.46875 -14.398438 1.46875 -15.453125 C 1.46875 -17.421875 2.179688 -18.957031 3.609375 -20.0625 C 5.046875 -21.164062 7.019531 -21.71875 9.53125 -21.71875 C 11.75 -21.71875 14.007812 -21.207031 16.3125 -20.1875 L 14.546875 -15.71875 C 12.546875 -16.632812 10.816406 -17.09375 9.359375 -17.09375 C 8.609375 -17.09375 8.0625 -16.957031 7.71875 -16.6875 C 7.375 -16.425781 7.203125 -16.101562 7.203125 -15.71875 C 7.203125 -15.300781 7.421875 -14.925781 7.859375 -14.59375 C 8.296875 -14.257812 9.472656 -13.65625 11.390625 -12.78125 C 13.242188 -11.945312 14.523438 -11.050781 15.234375 -10.09375 C 15.953125 -9.144531 16.3125 -7.945312 16.3125 -6.5 Z M 16.3125 -6.5 "/></g></g><g transform="translate(339.844348, 193.207298)"><g><path d="M 9.53125 0.296875 C 6.820312 0.296875 4.765625 -0.4375 3.359375 -1.90625 C 1.960938 -3.375 1.265625 -5.476562 1.265625 -8.21875 C 1.265625 -10.96875 2.019531 -13.097656 3.53125 -14.609375 C 5.039062 -16.128906 7.191406 -16.890625 9.984375 -16.890625 C 11.910156 -16.890625 13.722656 -16.46875 15.421875 -15.625 L 13.734375 -11.390625 C 13.046875 -11.691406 12.40625 -11.929688 11.8125 -12.109375 C 11.226562 -12.296875 10.617188 -12.390625 9.984375 -12.390625 C 9.054688 -12.390625 8.335938 -12.023438 7.828125 -11.296875 C 7.328125 -10.578125 7.078125 -9.5625 7.078125 -8.25 C 7.078125 -5.59375 8.054688 -4.265625 10.015625 -4.265625 C 11.703125 -4.265625 13.316406 -4.753906 14.859375 -5.734375 L 14.859375 -1.171875 C 13.378906 -0.191406 11.601562 0.296875 9.53125 0.296875 Z M 9.53125 0.296875 "/></g></g></g></svg>